<svg id="Layer_1" data-name="Layer 1" xmlns="http://www.w3.org/2000/svg" viewBox="0 0 689 446.6473"><defs><style>.cls-1,.cls-7,.cls-8{fill:#f5f5f2;}.cls-2{fill:#fff;}.cls-3{opacity:0.8;}.cls-4{opacity:0.7;}.cls-5{opacity:0.6;}.cls-6{opacity:0.5;}.cls-7{font-size:33.3818px;font-family:Europa-Bold;font-weight:700;}.cls-8{opacity:0.12;}</style></defs><title>smagsnuancer1</title><rect class="cls-1" x="0.5" y="56.4365" width="125.8506" height="23.0347"/><path class="cls-2" d="M125.8508,56.9363V78.9712H1V56.9363H125.8508m1-1H0V79.9712H126.8508V55.9363Z"/><g class="cls-3"><rect class="cls-1" x="142.0386" y="56.4365" width="125.8511" height="23.0347"/><path class="cls-2" d="M267.39,56.9363V78.9712H142.5388V56.9363H267.39m1-1H141.5388V79.9712H268.39V55.9363Z"/></g><g class="cls-4"><rect class="cls-1" x="282.2422" y="56.4365" width="125.8511" height="23.0347"/><path class="cls-2" d="M407.593,56.9363V78.9712H282.7422V56.9363H407.593m1-1H281.7422V79.9712H408.593V55.9363Z"/></g><g class="cls-5"><rect class="cls-1" x="421.1104" y="56.4365" width="125.8511" height="23.0347"/><path class="cls-2" d="M546.4612,56.9363V78.9712H421.6105V56.9363H546.4612m1-1H420.6105V79.9712H547.4612V55.9363Z"/></g><g class="cls-6"><rect class="cls-1" x="559.9785" y="56.4365" width="125.8511" height="23.0347"/><path class="cls-2" d="M685.33,56.9363V78.9712H560.4787V56.9363H685.33m1-1H559.4787V79.9712H686.33V55.9363Z"/></g><text class="cls-7" transform="translate(0.4795 28.374)">FYLDIG</text><rect class="cls-1" x="3.1704" y="219.3394" width="125.8511" height="23.0352"/><path class="cls-2" d="M128.5213,219.8394v22.0349H3.6705V219.8394H128.5213m1-1H2.6705v24.0349H129.5213V218.8394Z"/><g class="cls-3"><rect class="cls-1" x="144.7095" y="219.3394" width="125.8506" height="23.0352"/><path class="cls-2" d="M270.06,219.8394v22.0349H145.2093V219.8394H270.06m1-1H144.2093v24.0349H271.06V218.8394Z"/></g><g class="cls-4"><rect class="cls-1" x="284.9126" y="219.3394" width="125.8511" height="23.0352"/><path class="cls-2" d="M410.2635,219.8394v22.0349H285.4128V219.8394H410.2635m1-1H284.4128v24.0349H411.2635V218.8394Z"/></g><g class="cls-5"><rect class="cls-1" x="423.7813" y="219.3394" width="125.8506" height="23.0352"/><path class="cls-2" d="M549.1318,219.8394v22.0349H424.281V219.8394H549.1318m1-1H423.281v24.0349H550.1318V218.8394Z"/></g><g class="cls-6"><rect class="cls-1" x="562.6494" y="219.3394" width="125.8506" height="23.0352"/><path class="cls-2" d="M688,219.8394v22.0349H563.1492V219.8394H688m1-1H562.1492v24.0349H689V218.8394Z"/></g><text class="cls-7" transform="translate(3.1504 191.2773)">FRISK</text><rect class="cls-1" x="0.5" y="384.9131" width="125.8506" height="23.0347"/><path class="cls-2" d="M125.8508,385.4131V407.448H1V385.4131H125.8508m1-1H0V408.448H126.8508V384.4131Z"/><g class="cls-3"><rect class="cls-1" x="142.0386" y="384.9131" width="125.8511" height="23.0347"/><path class="cls-2" d="M267.39,385.4131V407.448H142.5388V385.4131H267.39m1-1H141.5388V408.448H268.39V384.4131Z"/></g><g class="cls-4"><rect class="cls-1" x="282.2422" y="384.9131" width="125.8511" height="23.0347"/><path class="cls-2" d="M407.593,385.4131V407.448H282.7422V385.4131H407.593m1-1H281.7422V408.448H408.593V384.4131Z"/></g><g class="cls-5"><rect class="cls-1" x="421.1104" y="384.9131" width="125.8511" height="23.0347"/><path class="cls-2" d="M546.4612,385.4131V407.448H421.6105V385.4131H546.4612m1-1H420.6105V408.448H547.4612V384.4131Z"/></g><g class="cls-6"><rect class="cls-1" x="559.9785" y="384.9131" width="125.8511" height="23.0347"/><path class="cls-2" d="M685.33,385.4131V407.448H560.4787V385.4131H685.33m1-1H559.4787V408.448H686.33V384.4131Z"/></g><text class="cls-7" transform="translate(0.4795 355.5156)">BITTER</text><path class="cls-8" d="M233.3443,45.1713c-.0487.2994-.0554.3823-.2762,3.0387-.1784,2.1466-.2678,3.2218-.2763,3.3151-.2261,2.4943-.301,2.5412-.4144,4.0056-.1485,1.918-.1435,3.4309-.1381,4.42.0141,2.59.187,3.5894-.2762,5.2488a8.5389,8.5389,0,0,1-.6907,1.7956,25.2978,25.2978,0,0,1-1.6575,2.3482,9.8056,9.8056,0,0,0-1.105,2.3481,15.7176,15.7176,0,0,0-.5525,4.9726c-.0123.672-.0037,1.1747,0,1.3813.084,4.6389.1341,6.9583.1381,7.4588.0268,3.3539.0427,5.3429,0,8.1494-.0643,4.2288-.1712,4.375-.1381,7.1826a45.3564,45.3564,0,0,1,0,4.6963,17.214,17.214,0,0,0-.1381,3.3151c.1305,1.5055.222,2.56.9669,3.315.53.5368,1.1238.6531,4.0056.9669,1.68.1829,2.6817.3445,4.1438.4144,1.7421.0832,3.07.0336,3.7294,0a20.4635,20.4635,0,0,0,2.7626-.2763c1.7-.3018,2.5507-.4526,3.1769-1.105.5089-.53.6775-1.18.8287-2.7625a29.6641,29.6641,0,0,0,.1382-4.9726c-.2307-2.5222-.0571-5.0655-.1382-7.5969-.2673-8.3446-.401-12.5168-.2762-14.6414.1053-1.7932.0765-3.5918.1381-5.387a14.4127,14.4127,0,0,0-.1381-3.5913,11.931,11.931,0,0,0-1.2432-3.4531c-1.0214-1.8257-1.71-1.8193-2.3481-3.4532a9.5676,9.5676,0,0,1-.5525-2.6244,15.97,15.97,0,0,1,0-3.315c.0578-.7289-.1448-2.89-.5525-7.1826-.3628-3.82-.5442-5.73-.5525-5.8013a30.817,30.817,0,0,0-.2763-3.3151c-.1933-.8448-.5963-2.1528,0-2.7625.1176-.12.1941-.1316.2763-.2762.1979-.3484.0255-.76-.4144-1.9338-.3078-.8214-.4087-1.114-.2763-1.2431.1844-.18.6051.1678.8288,0,.2983-.2238.1187-1.2681-.4144-1.9338-.7694-.9608-2.1484-.9747-4.0056-.9669-1.916.0081-4.0425.017-4.6963,1.2431-.3175.5953-.3014,1.5029,0,1.6576.2323.1192.5568-.2489.6906-.1382.1615.1338-.1673.79-.6906,2.21-.1926.5222-.314.8836-.1382,1.105.1707.2148.4488.0806.6907.2762.3419.2765.2419.9132.1381,1.6575C233.518,43.6965,233.4637,44.4385,233.3443,45.1713Z"/><path class="cls-1" d="M111.9333,209.8136c-.0488.2994-.0555.3823-.2763,3.0387-.1784,2.1466-.2678,3.2218-.2763,3.3151-.2261,2.4943-.3009,2.5412-.4143,4.0056-.1485,1.918-.1435,3.4309-.1382,4.42.0141,2.59.187,3.5893-.2762,5.2488a8.5451,8.5451,0,0,1-.6906,1.7956,25.3177,25.3177,0,0,1-1.6576,2.3482,9.8056,9.8056,0,0,0-1.105,2.3481,15.7176,15.7176,0,0,0-.5525,4.9726c-.0123.672-.0037,1.1747,0,1.3812.0841,4.639.1342,6.9584.1381,7.4589.0268,3.3539.0427,5.3429,0,8.1494-.0643,4.2288-.1712,4.375-.1381,7.1826a45.3564,45.3564,0,0,1,0,4.6963,17.214,17.214,0,0,0-.1381,3.3151c.1305,1.5055.222,2.56.9669,3.315.53.5368,1.1238.6531,4.0056.9669,1.68.1829,2.6817.3445,4.1438.4144,1.7421.0832,3.07.0336,3.73,0a20.4637,20.4637,0,0,0,2.7625-.2763c1.7005-.3018,2.5507-.4526,3.1769-1.105.5089-.53.6776-1.18.8288-2.7625a29.6553,29.6553,0,0,0,.1381-4.9726c-.2307-2.5222-.057-5.0655-.1381-7.597-.2674-8.3445-.4011-12.5167-.2763-14.6414.1053-1.7931.0765-3.5917.1381-5.3869a14.4127,14.4127,0,0,0-.1381-3.5913,11.9308,11.9308,0,0,0-1.2431-3.4531c-1.0215-1.8257-1.7095-1.8193-2.3482-3.4532a9.5676,9.5676,0,0,1-.5525-2.6244,15.97,15.97,0,0,1,0-3.315c.0578-.7289-.1448-2.89-.5525-7.1826-.3628-3.82-.5442-5.7305-.5525-5.8013a30.7914,30.7914,0,0,0-.2763-3.3151c-.1932-.8448-.5963-2.1528,0-2.7625.1176-.12.1941-.1316.2763-.2762.1979-.3484.0255-.76-.4144-1.9338-.3078-.8214-.4086-1.114-.2762-1.2432.1843-.18.605.1679.8287,0,.2983-.2237.1187-1.268-.4144-1.9337-.7694-.9608-2.1484-.9747-4.0056-.9669-1.916.0081-4.0425.017-4.6963,1.2431-.3175.5953-.3014,1.5029,0,1.6575.2323.1193.5568-.2488.6906-.1381.1616.1338-.1673.79-.6906,2.21-.1926.5223-.314.8837-.1382,1.1051.1707.2148.4488.0806.6907.2762.3419.2765.2419.9132.1381,1.6575C112.1069,208.3388,112.0526,209.0808,111.9333,209.8136Z"/><path class="cls-1" d="M523.064,378.229c-.0488.3-.0555.3823-.2763,3.0388-.1784,2.1466-.2678,3.2218-.2762,3.315-.2262,2.4944-.301,2.5413-.4144,4.0057-.1485,1.9179-.1435,3.4308-.1381,4.42.0141,2.59.1869,3.5894-.2763,5.2489a8.5415,8.5415,0,0,1-.6906,1.7956,25.3019,25.3019,0,0,1-1.6575,2.3481,9.8049,9.8049,0,0,0-1.1051,2.3482,15.7176,15.7176,0,0,0-.5525,4.9726c-.0123.6719-.0037,1.1747,0,1.3812.0841,4.639.1342,6.9583.1382,7.4588.0268,3.3539.0426,5.3429,0,8.15-.0643,4.2288-.1713,4.375-.1382,7.1826a45.3278,45.3278,0,0,1,0,4.6963,17.2133,17.2133,0,0,0-.1381,3.315c.1306,1.5055.222,2.56.9669,3.3151.53.5368,1.1239.6531,4.0057.9668,1.68.1829,2.6816.3445,4.1438.4144,1.7421.0833,3.0695.0337,3.7294,0a20.4627,20.4627,0,0,0,2.7625-.2762c1.7005-.3018,2.5507-.4527,3.1769-1.105.509-.53.6776-1.18.8288-2.7626a29.6542,29.6542,0,0,0,.1381-4.9725c-.2307-2.5222-.057-5.0655-.1381-7.597-.2674-8.3445-.401-12.5168-.2763-14.6414.1053-1.7931.0765-3.5917.1381-5.3869a14.4077,14.4077,0,0,0-.1381-3.5913,11.9288,11.9288,0,0,0-1.2431-3.4532c-1.0215-1.8256-1.71-1.8192-2.3482-3.4531a9.5683,9.5683,0,0,1-.5525-2.6244,15.9712,15.9712,0,0,1,0-3.3151c.0578-.7288-.1448-2.89-.5525-7.1825-.3628-3.82-.5442-5.7305-.5525-5.8014a30.8151,30.8151,0,0,0-.2762-3.315c-.1933-.8448-.5964-2.1529,0-2.7625.1175-.12.194-.1316.2762-.2763.1979-.3484.0255-.76-.4144-1.9337-.3078-.8214-.4086-1.114-.2762-1.2432.1843-.18.605.1678.8287,0,.2984-.2237.1188-1.268-.4143-1.9338-.7695-.9608-2.1485-.9747-4.0057-.9668-1.9159.008-4.0425.017-4.6963,1.2431-.3174.5953-.3013,1.5028,0,1.6575.2324.1193.5569-.2489.6906-.1381.1616.1337-.1672.79-.6906,2.21-.1925.5223-.314.8836-.1381,1.105.1706.2148.4487.0806.6906.2763.3419.2765.242.9131.1381,1.6575C523.2377,376.7543,523.1833,377.4963,523.064,378.229Z"/><path class="cls-1" d="M231.3193,42.9725c-.0488.3-.0555.3823-.2763,3.0388-.1784,2.1466-.2678,3.2218-.2763,3.315-.2261,2.4944-.3009,2.5413-.4143,4.0057-.1485,1.9179-.1435,3.4309-.1382,4.42.0141,2.59.187,3.5893-.2762,5.2488a8.5451,8.5451,0,0,1-.6906,1.7956,25.3177,25.3177,0,0,1-1.6576,2.3482,9.8056,9.8056,0,0,0-1.105,2.3481,15.7176,15.7176,0,0,0-.5525,4.9726c-.0123.6719-.0037,1.1747,0,1.3812.0841,4.639.1342,6.9584.1381,7.4589.0268,3.3539.0427,5.3428,0,8.1494-.0643,4.2288-.1712,4.375-.1381,7.1826a45.3564,45.3564,0,0,1,0,4.6963,17.2133,17.2133,0,0,0-.1381,3.315c.1305,1.5055.222,2.56.9669,3.3151.53.5368,1.1239.6531,4.0056.9669,1.68.1829,2.6817.3445,4.1438.4143,1.7422.0833,3.07.0337,3.7295,0a20.4465,20.4465,0,0,0,2.7625-.2762c1.7005-.3018,2.5507-.4527,3.1769-1.105.5089-.53.6776-1.18.8288-2.7626a29.6542,29.6542,0,0,0,.1381-4.9725c-.2307-2.5222-.057-5.0655-.1381-7.597-.2674-8.3445-.4011-12.5168-.2763-14.6414.1053-1.7931.0765-3.5917.1381-5.3869a14.4079,14.4079,0,0,0-.1381-3.5913,11.9319,11.9319,0,0,0-1.2431-3.4532c-1.0215-1.8256-1.7095-1.8192-2.3482-3.4531a9.5683,9.5683,0,0,1-.5525-2.6244,15.9712,15.9712,0,0,1,0-3.3151c.0578-.7288-.1448-2.89-.5525-7.1825-.3628-3.82-.5442-5.73-.5525-5.8013a30.7893,30.7893,0,0,0-.2763-3.3151c-.1932-.8448-.5963-2.1529,0-2.7625.1176-.12.1941-.1316.2763-.2763.1979-.3484.0255-.76-.4144-1.9337-.3078-.8214-.4086-1.114-.2762-1.2432.1843-.18.605.1678.8287,0,.2983-.2237.1187-1.268-.4144-1.9337-.7694-.9609-2.1484-.9747-4.0056-.9669-1.916.008-4.0425.017-4.6963,1.2431-.3175.5953-.3014,1.5028,0,1.6575.2323.1193.5568-.2489.6906-.1381.1616.1338-.1673.79-.6906,2.21-.1926.5223-.314.8837-.1382,1.105.1707.2148.4488.0807.6907.2763.3419.2765.2419.9131.1381,1.6575C231.4929,41.4978,231.4386,42.24,231.3193,42.9725Z"/><path class="cls-8" d="M113.3789,210.6475c-.0488.2995-.0555.3823-.2763,3.0388-.1784,2.1466-.2678,3.2218-.2762,3.315-.2262,2.4944-.301,2.5413-.4144,4.0057-.1485,1.9179-.1435,3.4308-.1381,4.42.0141,2.59.1869,3.5893-.2763,5.2488a8.5359,8.5359,0,0,1-.6906,1.7956A25.2978,25.2978,0,0,1,109.65,234.82a9.7975,9.7975,0,0,0-1.105,2.3481,15.7118,15.7118,0,0,0-.5525,4.9726c-.0124.6719-.0038,1.1747,0,1.3812.084,4.639.1341,6.9584.1381,7.4588.0268,3.3539.0427,5.3429,0,8.15-.0643,4.2288-.1713,4.375-.1381,7.1826a45.385,45.385,0,0,1,0,4.6963,17.2134,17.2134,0,0,0-.1382,3.315c.1306,1.5055.222,2.56.9669,3.3151.53.5368,1.1239.6531,4.0057.9668,1.68.1829,2.6816.3445,4.1438.4144,1.7421.0833,3.0695.0337,3.7294,0a20.4627,20.4627,0,0,0,2.7625-.2762c1.7-.3018,2.5508-.4527,3.1769-1.105.509-.53.6776-1.18.8288-2.7626a29.6542,29.6542,0,0,0,.1381-4.9725c-.2307-2.5222-.057-5.0655-.1381-7.597-.2674-8.3445-.401-12.5168-.2763-14.6414.1053-1.7931.0765-3.5917.1382-5.3869a14.4121,14.4121,0,0,0-.1382-3.5913,11.9288,11.9288,0,0,0-1.2431-3.4532c-1.0214-1.8256-1.71-1.8192-2.3482-3.4531a9.5683,9.5683,0,0,1-.5525-2.6244,15.9712,15.9712,0,0,1,0-3.3151c.0579-.7288-.1448-2.89-.5525-7.1825-.3628-3.82-.5442-5.73-.5525-5.8014a30.79,30.79,0,0,0-.2762-3.315c-.1933-.8448-.5964-2.1529,0-2.7625.1175-.12.194-.1316.2762-.2763.1979-.3484.0256-.76-.4144-1.9337-.3078-.8214-.4086-1.114-.2762-1.2432.1844-.18.605.1678.8287,0,.2984-.2237.1188-1.268-.4143-1.9338-.7694-.9608-2.1485-.9747-4.0057-.9668-1.9159.008-4.0424.017-4.6963,1.2431-.3174.5953-.3013,1.5028,0,1.6575.2324.1193.5569-.2489.6906-.1381.1616.1338-.1672.79-.6906,2.21-.1925.5223-.314.8836-.1381,1.105.1706.2148.4487.0806.6906.2763.3419.2765.242.9131.1381,1.6575C113.5526,209.1728,113.4982,209.9148,113.3789,210.6475Z"/><path class="cls-8" d="M524.2513,379.429c-.0488.3-.0555.3823-.2763,3.0388-.1784,2.1466-.2678,3.2218-.2762,3.315-.2262,2.4944-.301,2.5413-.4144,4.0057-.1485,1.9179-.1435,3.4308-.1381,4.42.0141,2.59.1869,3.5894-.2763,5.2488a8.5343,8.5343,0,0,1-.6906,1.7957,25.3019,25.3019,0,0,1-1.6575,2.3481,9.7994,9.7994,0,0,0-1.105,2.3482,15.714,15.714,0,0,0-.5526,4.9725c-.0123.672-.0037,1.1748,0,1.3813.0841,4.639.1342,6.9583.1382,7.4588.0268,3.3539.0426,5.3429,0,8.1495-.0643,4.2288-.1713,4.375-.1382,7.1826a45.3278,45.3278,0,0,1,0,4.6963,17.2133,17.2133,0,0,0-.1381,3.315c.1306,1.5055.222,2.56.9669,3.315.53.5369,1.1239.6532,4.0057.9669,1.68.1829,2.6816.3445,4.1438.4144,1.7421.0833,3.07.0337,3.7294,0a20.4627,20.4627,0,0,0,2.7625-.2762c1.7-.3018,2.5508-.4527,3.1769-1.1051.509-.53.6776-1.18.8288-2.7625a29.6542,29.6542,0,0,0,.1381-4.9725c-.2307-2.5222-.057-5.0656-.1381-7.597-.2674-8.3445-.401-12.5168-.2763-14.6414.1053-1.7931.0765-3.5917.1382-5.3869a14.4121,14.4121,0,0,0-.1382-3.5913,11.9288,11.9288,0,0,0-1.2431-3.4532c-1.0215-1.8256-1.7095-1.8193-2.3482-3.4531a9.5683,9.5683,0,0,1-.5525-2.6244,15.9712,15.9712,0,0,1,0-3.3151c.0578-.7288-.1448-2.89-.5525-7.1826-.3628-3.82-.5442-5.73-.5525-5.8013a30.79,30.79,0,0,0-.2762-3.315c-.1933-.8448-.5964-2.1529,0-2.7625.1175-.12.194-.1316.2762-.2763.1979-.3484.0256-.76-.4144-1.9338-.3078-.8213-.4086-1.1139-.2762-1.2431.1844-.18.605.1678.8287,0,.2984-.2237.1188-1.268-.4143-1.9338-.7694-.9608-2.1485-.9747-4.0057-.9668-1.9159.008-4.0425.017-4.6963,1.2431-.3174.5953-.3013,1.5028,0,1.6575.2324.1193.5569-.2489.6906-.1381.1616.1337-.1672.79-.6906,2.21-.1925.5223-.314.8836-.1381,1.105.1706.2148.4487.0806.6906.2763.3419.2765.242.9131.1381,1.6575C524.425,377.9543,524.3706,378.6963,524.2513,379.429Z"/></svg>
