<svg id="Layer_1" data-name="Layer 1" xmlns="http://www.w3.org/2000/svg" viewBox="0 0 623 204"><title>smagsnuancer2</title><text transform="translate(145.9263 145.3965)" font-size="16.9843" fill="#310000" font-family="PoiretOne-Regular, Poiret One">Citra, Nelson and Mosaic </text><path d="M382.6934,12.6351l5.7289-.1028q-.6915,8.4254-1.3829,16.8506h-2.6669Z" fill="#310000" stroke="#310000" stroke-miterlimit="10" stroke-width="2"/><line x1="386.1359" y1="30.77" x2="387.1876" y2="30.77" fill="#310000" stroke="#fff" stroke-miterlimit="10" stroke-width="2"/><line x1="383.9281" y1="30.77" x2="386.1359" y2="30.77" fill="#310000" stroke="#fff" stroke-miterlimit="10" stroke-width="2"/><ellipse cx="385.5578" cy="34.4175" rx="2.3706" ry="2.4659" fill="none" stroke="#310000" stroke-miterlimit="10" stroke-width="2"/><line x1="385.6072" y1="29.3829" x2="385.6072" y2="31.9515" fill="none" stroke="#310000" stroke-miterlimit="10" stroke-width="2"/><path d="M384.0762,36.37l.5433,5.086h1.9754l.4445-5.086" fill="#310000" stroke="#310000" stroke-miterlimit="10" stroke-width="2"/><path d="M391.3976,12.7288l5.7289-.1028q-.6914,8.4254-1.3828,16.8506h-2.6669Q392.2373,21.1027,391.3976,12.7288Z" fill="#310000" stroke="#310000" stroke-miterlimit="10" stroke-width="2"/><line x1="394.8401" y1="30.8637" x2="395.8918" y2="30.8637" fill="#310000" stroke="#fff" stroke-miterlimit="10" stroke-width="2"/><line x1="392.6323" y1="30.8637" x2="394.8401" y2="30.8637" fill="#310000" stroke="#fff" stroke-miterlimit="10" stroke-width="2"/><ellipse cx="394.2621" cy="34.5112" rx="2.3706" ry="2.4659" fill="none" stroke="#310000" stroke-miterlimit="10" stroke-width="2"/><line x1="394.3114" y1="29.4766" x2="394.3114" y2="32.0453" fill="none" stroke="#310000" stroke-miterlimit="10" stroke-width="2"/><path d="M392.7805,36.4634q.2715,2.543.5432,5.086h1.9755l.4445-5.086" fill="#310000" stroke="#310000" stroke-miterlimit="10" stroke-width="2"/><path d="M400.3976,12.7288l5.7289-.1028q-.6914,8.4254-1.3828,16.8506h-2.6669Q401.2373,21.1027,400.3976,12.7288Z" fill="#310000" stroke="#310000" stroke-miterlimit="10" stroke-width="2"/><line x1="403.8401" y1="30.8637" x2="404.8918" y2="30.8637" fill="#310000" stroke="#fff" stroke-miterlimit="10" stroke-width="2"/><line x1="401.6323" y1="30.8637" x2="403.8401" y2="30.8637" fill="#310000" stroke="#fff" stroke-miterlimit="10" stroke-width="2"/><ellipse cx="403.2621" cy="34.5112" rx="2.3706" ry="2.4659" fill="none" stroke="#310000" stroke-miterlimit="10" stroke-width="2"/><line x1="403.3114" y1="29.4766" x2="403.3114" y2="32.0453" fill="none" stroke="#310000" stroke-miterlimit="10" stroke-width="2"/><path d="M401.7805,36.4634q.2715,2.543.5432,5.086h1.9755l.4445-5.086" fill="#310000" stroke="#310000" stroke-miterlimit="10" stroke-width="2"/><text transform="translate(147.9824 36.668)" font-size="16.9843" fill="#310000" font-family="PoiretOne-Regular, Poiret One">6,5</text><text transform="translate(67.4199 37.6904)" font-size="22.6458" fill="#310000" font-family="Europa-Bold" font-weight="700">ABS</text><text transform="translate(527.0171 148.6709)" font-size="16.9843" fill="#310000" font-family="PoiretOne-Regular, Poiret One">0.5 l</text><text transform="translate(528.0171 35.8379)" font-size="16.9843" fill="#310000" font-family="PoiretOne-Regular, Poiret One">X<tspan x="8.2031" y="0" letter-spacing="-0.126em">P</tspan><tspan x="12.6875" y="0">A</tspan></text><path d="M390.4247,126.3071c-.0277.14-.0314.1793-.1565,1.4255-.101,1.007-.1516,1.5114-.1564,1.5551-.1281,1.17-.1705,1.1921-.2347,1.8791a19.8261,19.8261,0,0,0-.0782,2.0735,6.77,6.77,0,0,1-.1564,2.4623,3.61,3.61,0,0,1-.3911.8423,12.16,12.16,0,0,1-.9386,1.1016,4.2779,4.2779,0,0,0-.6258,1.1015,6.1836,6.1836,0,0,0-.3129,2.3327c-.007.3153-.0021.5511,0,.648.0476,2.1762.076,3.2642.0783,3.499.0151,1.5734.0241,2.5064,0,3.823-.0365,1.9838-.097,2.0524-.0783,3.3695a17.61,17.61,0,0,1,0,2.203,6.707,6.707,0,0,0-.0782,1.5552c.0739.7062.1257,1.2009.5475,1.5551.3.2518.6365.3064,2.2684.4536.9512.0858,1.5186.1616,2.3466.1944.9865.039,1.7382.0157,2.1119,0a13.94,13.94,0,0,0,1.5643-.13,3.48,3.48,0,0,0,1.7991-.5184c.2882-.2488.3837-.5535.4693-1.2959a11.5384,11.5384,0,0,0,.0782-2.3327c-.1306-1.1832,0-2.35-.0462-3.5374-.1514-3.9145-.2591-5.8982-.1884-6.8949.06-.8412.0433-1.6849.0782-2.5271a5.6193,5.6193,0,0,0-.0782-1.6847,5.0465,5.0465,0,0,0-.704-1.62c-.5784-.8565-.9681-.8535-1.33-1.62A3.8305,3.8305,0,0,1,395.9,134.99a6.2126,6.2126,0,0,1,0-1.5551,30.4487,30.4487,0,0,0-.3129-3.3694c-.2054-1.7922-.3082-2.6883-.3129-2.7215a12.0342,12.0342,0,0,0-.1564-1.5551c-.1095-.3963-.3377-1.01,0-1.296.0666-.0563.11-.0617.1564-.13.1121-.1634.0145-.3565-.2346-.9071-.1743-.3853-.2314-.5226-.1565-.5832.1044-.0844.3427.0787.4694,0,.1689-.1049.0672-.5948-.2347-.9071-.4357-.4508-1.2166-.4573-2.2683-.4536-1.085.0038-2.2892.008-2.6595.5832-.18.2792-.1706.705,0,.7775.1316.056.3154-.1167.3911-.0648.0915.0628-.0947.3708-.3911,1.0368-.109.245-.1778.4145-.0782.5183.0966.1008.2541.0379.3911.13.1936.13.137.4284.0782.7776C390.523,125.6152,390.4923,125.9633,390.4247,126.3071Z" fill="#310000"/><path d="M27.2051,134.9148a11.1613,11.1613,0,0,1,.3551-2.06,11.4418,11.4418,0,0,1,2.8763-5.007,12.24,12.24,0,0,1,6.1339-3.0637c.33-.05.5917-.0748.7643-.09.3668-.0329.6773-.0416.9141-.042a12.3811,12.3811,0,0,1,7.3862,2.6988,11.2733,11.2733,0,0,1,3.7286,7.5637,10.4756,10.4756,0,0,1-6.64-3.0894,9.993,9.993,0,0,1-4.4388,4.8649,11.2972,11.2972,0,0,1-4.4744-4.8294,10.9387,10.9387,0,0,1-6.6049,3.0539Z" fill="#310000"/><path d="M37.3966,124.8653c-.0392-.5024-.06-.9355-.071-1.2784-.0278-.8408.0024-1.06.142-1.2783a1.048,1.048,0,0,1,.7812-.4972,1.1287,1.1287,0,0,1,.9233.71c.1339.29.0892.4882.071,1.2784-.0106.4635-.0053.8368,0,1.0653Z" fill="#310000"/><path d="M28.5545,136.4062a13.5344,13.5344,0,0,0,4.7584-1.7755,7.6317,7.6317,0,0,0,2.2727,2.3437,10.365,10.365,0,0,1-5.6107,5.0425,9.0509,9.0509,0,0,1-1.42-5.6107Z" fill="#310000"/><path d="M47.9873,136.4062a13.5344,13.5344,0,0,1-4.7584-1.7755,7.6347,7.6347,0,0,1-2.2727,2.3437,10.3641,10.3641,0,0,0,5.6107,5.0425,9.0509,9.0509,0,0,0,1.42-5.6107Z" fill="#310000"/><path d="M37.148,137.9687l1.1364.8522,1.1363-.7812a26.0859,26.0859,0,0,0,2.06,2.6988,12.0565,12.0565,0,0,1-3.1249,4.9715,9.995,9.995,0,0,1-3.267-4.9715A25.5372,25.5372,0,0,0,37.148,137.9687Z" fill="#310000"/><path d="M37.29,147.2014l1.0653.9943.9943-.9232,1.8465,1.6334a10.67,10.67,0,0,1-2.863,4.19,13.3184,13.3184,0,0,1-2.9607-4.19Z" fill="#310000"/><path d="M33.597,142.0169a10.7672,10.7672,0,0,1-2.6988,1.6335,10.1421,10.1421,0,0,0,1.6334,4.8294,10.7168,10.7168,0,0,0,3.48-2.5567,8.9984,8.9984,0,0,1-2.4147-3.9062Z" fill="#310000"/><path d="M42.9717,142.0169a10.7672,10.7672,0,0,0,2.6988,1.6335,10.1421,10.1421,0,0,1-1.6334,4.8294,10.7168,10.7168,0,0,1-3.48-2.5567,8.9984,8.9984,0,0,0,2.4147-3.9062Z" fill="#310000"/><path d="M37.3084,24.3186a6.2391,6.2391,0,0,1-.45,2.42,5.7,5.7,0,0,1-1.2017,1.8393,5.2174,5.2174,0,0,1-1.7495,1.169,5.4222,5.4222,0,0,1-2.0764.4088,5.6767,5.6767,0,0,1-2.1745-.4088,4.9572,4.9572,0,0,1-1.7249-1.169,5.3736,5.3736,0,0,1-1.1363-1.8393,6.7857,6.7857,0,0,1-.4088-2.42,7.1587,7.1587,0,0,1,.4088-2.4852,5.4079,5.4079,0,0,1,1.1363-1.88,5.0045,5.0045,0,0,1,1.7249-1.1854,5.5818,5.5818,0,0,1,2.1745-.4169,5.6431,5.6431,0,0,1,2.1827.4169,5.0718,5.0718,0,0,1,1.7413,1.1854,5.3484,5.3484,0,0,1,1.1445,1.88A7.1658,7.1658,0,0,1,37.3084,24.3186Zm7.8643-5.0848a2.1435,2.1435,0,0,1,.4905-.4414,1.4619,1.4619,0,0,1,.8175-.1962h2.9266L31.8476,41.633a1.6015,1.6015,0,0,1-.4987.4333,1.4518,1.4518,0,0,1-.7276.1717H27.613ZM34.1856,24.3186a5.9393,5.9393,0,0,0-.18-1.5859,2.8412,2.8412,0,0,0-.4986-1.03,1.8324,1.8324,0,0,0-.7521-.564,2.4844,2.4844,0,0,0-.9238-.1717,2.4206,2.4206,0,0,0-.9156.1717,1.7825,1.7825,0,0,0-.7357.564,2.8263,2.8263,0,0,0-.4823,1.03,6.2063,6.2063,0,0,0-.1717,1.5859,5.7639,5.7639,0,0,0,.1717,1.5287,2.6593,2.6593,0,0,0,.4823.9892,1.7655,1.7655,0,0,0,.7357.54,2.5263,2.5263,0,0,0,.9156.1635,2.5931,2.5931,0,0,0,.9238-.1635,1.8172,1.8172,0,0,0,.7521-.54,2.6764,2.6764,0,0,0,.4986-.9892A5.5169,5.5169,0,0,0,34.1856,24.3186ZM50.65,36.6791a6.2371,6.2371,0,0,1-.45,2.42,5.7016,5.7016,0,0,1-1.2017,1.8394,5.396,5.396,0,0,1-3.8258,1.5941,5.5827,5.5827,0,0,1-2.1746-.4169,5.0592,5.0592,0,0,1-1.7249-1.1772,5.3765,5.3765,0,0,1-1.1363-1.8394,6.7856,6.7856,0,0,1-.4087-2.42,7.1584,7.1584,0,0,1,.4087-2.4852,5.4085,5.4085,0,0,1,1.1363-1.88,5.0027,5.0027,0,0,1,1.7249-1.1854,5.5809,5.5809,0,0,1,2.1746-.4169,5.6416,5.6416,0,0,1,2.1827.4169,5.07,5.07,0,0,1,1.7412,1.1854,5.3475,5.3475,0,0,1,1.1445,1.88A7.1654,7.1654,0,0,1,50.65,36.6791Zm-3.1065,0a5.7042,5.7042,0,0,0-.188-1.586,2.9357,2.9357,0,0,0-.5069-1.03,1.8329,1.8329,0,0,0-.7521-.5641,2.4855,2.4855,0,0,0-.9237-.1717,2.4225,2.4225,0,0,0-.9156.1717,1.7275,1.7275,0,0,0-.7276.5641,3.0131,3.0131,0,0,0-.4823,1.03,5.9314,5.9314,0,0,0-.18,1.586,5.599,5.599,0,0,0,.18,1.5368,2.8305,2.8305,0,0,0,.4823.9974,1.709,1.709,0,0,0,.7276.54,2.5263,2.5263,0,0,0,.9156.1635,2.5922,2.5922,0,0,0,.9237-.1635,1.8165,1.8165,0,0,0,.7521-.54,2.7623,2.7623,0,0,0,.5069-.9974A5.3853,5.3853,0,0,0,47.5434,36.6791Z" fill="#310000"/><text transform="translate(67.3711 145.1836)" font-size="22.6458" fill="#310000" font-family="Europa-Bold" font-weight="700">HOPS</text><text transform="translate(422.1543 149.1836)" font-size="22.6458" fill="#310000" font-family="Europa-Bold" font-weight="700">SIZE</text><text transform="translate(422.1543 36.6533)" font-size="22.6458" fill="#310000" font-family="Europa-Bold" font-weight="700">STYLE</text></svg>
